<?xml version="1.0" encoding="utf-8"?>
<svg id="Layer_1" xmlns="http://www.w3.org/2000/svg" viewBox="0 0 298.35 106.28"><defs><style>.cls-1{fill:#ed6965;stroke-width:0px;}</style></defs><path class="cls-1" d="m21.34,52.92c.94,0,1.83-.25,2.59-.69l19.55,19.5c.56.56,1.48.56,2.04,0,.56-.56.56-1.47,0-2.04l-19.59-19.54c.38-.72.59-1.53.59-2.39,0-2.85-2.32-5.16-5.18-5.16-.63,0-1.24.11-1.8.32-1.48-2.6-2.22-5.5-2.22-8.41,0-4.36,1.67-8.72,5.01-12.05,3.34-3.33,7.71-5,12.08-5h0c4.37,0,8.74,1.67,12.08,5l10.21,10.18,1.02,1.02,1.02-1.02,10.21-10.18c3.34-3.33,7.71-4.99,12.08-4.99h0c.42,0,.83.01,1.25.04v.06c0,2.85,2.32,5.16,5.18,5.16,1.57,0,2.97-.69,3.92-1.79.6.46,1.19.96,1.74,1.51,3.05,3.04,4.71,6.94,4.97,10.91.27,4.03-.89,8.14-3.48,11.5-.48.63-.36,1.53.27,2.01.63.48,1.54.36,2.02-.27,3.02-3.93,4.38-8.72,4.06-13.42-.31-4.65-2.25-9.21-5.81-12.76-.81-.81-1.67-1.53-2.57-2.16.03-.23.05-.46.05-.69,0-2.85-2.32-5.16-5.18-5.16-1.79,0-3.38.91-4.31,2.3-.7-.07-1.41-.11-2.12-.11h0c-5.11,0-10.22,1.94-14.12,5.83l-9.19,9.16-9.19-9.16c-3.9-3.89-9.01-5.84-14.12-5.84h0c-5.11,0-10.22,1.95-14.12,5.84-3.9,3.89-5.85,8.99-5.85,14.09,0,3.51.93,7.02,2.78,10.14-.66.87-1.05,1.94-1.05,3.11,0,2.85,2.32,5.16,5.18,5.16h0ZM87.45,14.22c1.69,0,3.1,1.26,3.32,2.89.02.15.03.3.03.46,0,.91-.37,1.73-.96,2.34-.61.62-1.46,1.01-2.4,1.01-1.79,0-3.26-1.41-3.35-3.18,0-.06,0-.11,0-.17,0-1.01.45-1.92,1.16-2.53.59-.51,1.35-.82,2.19-.82Z"></path><path class="cls-1" d="m89.24,67.64c-2.86,0-5.18,2.31-5.18,5.16,0,.9.23,1.75.64,2.49l-4.7,4.69-22.29,22.23-22.29-22.23-2.98-2.97c.32-.67.5-1.42.5-2.21,0-2.85-2.32-5.16-5.18-5.16s-5.18,2.31-5.18,5.16,2.32,5.16,5.18,5.16c1.01,0,1.96-.29,2.76-.79l2.85,2.85,23.31,23.25,1.02,1.02,1.02-1.02,23.31-23.25,4.7-4.69c.74.41,1.59.64,2.5.64,2.86,0,5.18-2.31,5.18-5.16s-2.32-5.16-5.18-5.16h0Zm-60.05,10.19c-.43.2-.91.31-1.41.31-1.85,0-3.35-1.5-3.35-3.34,0-.5.11-.98.31-1.41.43-.91,1.25-1.59,2.24-1.84.26-.06.52-.1.8-.1,1.85,0,3.35,1.5,3.35,3.34,0,.28-.03.54-.1.79-.25.99-.93,1.81-1.84,2.24h0Z"></path><path class="cls-1" d="m115.43,34.5c0-8.78-3.36-17.57-10.08-24.27-1.11-1.11-2.3-2.14-3.57-3.1-.54-.41-1.09-.8-1.65-1.17.04-.26.06-.53.06-.8,0-2.85-2.32-5.16-5.18-5.16-1.53,0-2.9.66-3.84,1.71-5.92-1.82-12.23-2.01-18.23-.57-5.53,1.33-10.79,4.03-15.23,8.11C51.14,3.21,42.77.18,34.41.18,25.6.18,16.8,3.53,10.08,10.23c-.39.39-.78.8-1.15,1.2-.61-.25-1.27-.39-1.98-.39-2.86,0-5.18,2.31-5.18,5.16,0,1.42.58,2.71,1.51,3.64-2.19,4.62-3.28,9.63-3.28,14.65,0,8.78,3.36,17.56,10.08,24.26l8.68,8.65c.56.56,1.48.56,2.04,0,.56-.56.56-1.47,0-2.04l-8.68-8.65c-6.16-6.14-9.23-14.18-9.23-22.23,0-4.53.97-9.06,2.93-13.25.37.08.75.13,1.14.13,2.86,0,5.18-2.31,5.18-5.16,0-1.11-.35-2.13-.94-2.97.3-.33.61-.65.93-.97,6.15-6.14,14.22-9.21,22.29-9.21s16.13,3.07,22.29,9.21l1.02,1.02,1.02-1.02c4.26-4.25,9.43-7.03,14.88-8.34,5.36-1.29,10.99-1.15,16.3.4-.04.27-.07.55-.07.84,0,2.85,2.32,5.16,5.18,5.16,1.54,0,2.92-.67,3.87-1.74.39.27.78.55,1.16.83,1.11.84,2.2,1.79,3.26,2.85,6.16,6.14,9.23,14.18,9.23,22.23s-3.08,16.09-9.23,22.23l-2.73,2.73c-.77-.46-1.68-.72-2.64-.72-2.86,0-5.18,2.31-5.18,5.16s2.32,5.16,5.18,5.16,5.18-2.31,5.18-5.16c0-.84-.2-1.64-.56-2.34l2.8-2.79c6.72-6.7,10.08-15.48,10.08-24.26h0ZM10.31,16.22c0,1.84-1.5,3.34-3.35,3.34-.09,0-.19,0-.28-.01-1.04-.08-1.94-.64-2.49-1.45-.37-.54-.58-1.18-.58-1.88,0-1.84,1.5-3.34,3.35-3.34.23,0,.46.02.68.07,1,.21,1.84.86,2.3,1.75.24.46.37.98.37,1.53Zm90.98,47.69c0,1.84-1.5,3.34-3.35,3.34-.33,0-.64-.05-.94-.14-.97-.29-1.76-1-2.15-1.93-.17-.39-.26-.83-.26-1.28,0-1.84,1.5-3.34,3.35-3.34.45,0,.89.09,1.28.25.93.39,1.64,1.17,1.93,2.15.09.3.14.61.14.94h0Z"></path><path class="cls-1" d="m52.54,83.95c.92,0,1.79-.24,2.54-.66l1.62,1.62,1.02,1.02,1.02-1.02,26.17-26.1c.75.42,1.62.67,2.55.67,2.86,0,5.18-2.31,5.18-5.16s-2.32-5.16-5.18-5.16-5.18,2.31-5.18,5.16c0,.88.22,1.71.61,2.44l-25.17,25.1-.62-.62c.39-.73.62-1.56.62-2.45,0-2.85-2.32-5.16-5.18-5.16s-5.18,2.31-5.18,5.16,2.32,5.16,5.18,5.16h0Zm0-8.51c1.85,0,3.35,1.5,3.35,3.34,0,.37-.06.73-.18,1.07-.32.95-1.07,1.72-2.01,2.07-.36.13-.76.21-1.17.21-1.85,0-3.35-1.5-3.35-3.34,0-.41.07-.8.21-1.17.35-.94,1.11-1.68,2.07-2,.34-.11.7-.18,1.07-.18h0Z"></path><path class="cls-1" d="m85.47,39.38c.65.46,1.55.3,2.01-.35,1.1-1.55,1.57-3.4,1.41-5.2-.15-1.78-.92-3.52-2.28-4.88-1.54-1.53-3.56-2.3-5.57-2.3s-4.04.77-5.58,2.3l-14.68,14.64c-.86-.62-1.91-.99-3.05-.99s-2.19.37-3.05.99l-14.68-14.64c-1.54-1.54-3.55-2.3-5.58-2.3s-4.04.77-5.57,2.3c-1.54,1.54-2.31,3.55-2.31,5.56h0c0,2.01.77,4.02,2.31,5.56l27.86,27.79,1.02,1.02,1.02-1.02,22.62-22.56c.56-.56.56-1.47,0-2.03-.56-.56-1.48-.56-2.04,0l-21.6,21.55-26.84-26.77c-.98-.98-1.47-2.25-1.47-3.52h0c0-1.27.49-2.54,1.47-3.52.98-.98,2.26-1.47,3.54-1.47s2.55.49,3.53,1.47l14.95,14.91c-.23.58-.35,1.21-.35,1.87,0,2.85,2.32,5.16,5.18,5.16s5.18-2.31,5.18-5.16c0-.66-.13-1.29-.35-1.87l14.95-14.91c.98-.98,2.26-1.47,3.53-1.47s2.55.49,3.54,1.47c.87.87,1.35,1.97,1.45,3.09.1,1.15-.2,2.32-.89,3.3-.46.65-.3,1.55.35,2h0Zm-24.4,8.38c0,1.84-1.5,3.34-3.35,3.34s-3.35-1.5-3.35-3.34c0-.13,0-.25.02-.38.12-1.05.73-1.95,1.59-2.48.51-.31,1.1-.48,1.74-.48s1.23.18,1.74.48c.87.52,1.47,1.43,1.59,2.48.01.12.02.25.02.38h0Z"></path><path class="cls-1" d="m160.81,37.53h12.31l11.05,34.47h-8.98l-2.35-8.4h-11.72l-2.35,8.4h-8.98l11.03-34.47Zm10.64,20.36l-4.42-15.31h-.1l-4.37,15.31h8.9Z"></path><path class="cls-1" d="m189.93,37.55h8.67v34.45h-8.67v-34.45Z"></path><path class="cls-1" d="m220.55,64.5h-15.68v-5.64l11.51-21.31h12.74v21.41h4.3v5.54h-4.3v7.5h-8.57v-7.5h0Zm0-5.54v-15.92l.54-.03-7.6,15.95h7.06Z"></path><path class="cls-1" d="m238.25,37.55h8.72v14.29h12.74v-14.29h8.7v34.45h-8.7v-14.29h-12.74v14.29h-8.72v-34.45Z"></path><path class="cls-1" d="m274.45,37.55h23.89v5.92h-15.17v10.13h13.89v5.64h-13.89v12.76h-8.72v-34.45h0Z"></path></svg>