<?xml version="1.0" encoding="utf-8"?>
<!-- Generator: Adobe Illustrator 21.0.0, SVG Export Plug-In . SVG Version: 6.00 Build 0)  -->
<svg version="1.1" id="Layer_1" xmlns="http://www.w3.org/2000/svg" xmlns:xlink="http://www.w3.org/1999/xlink" x="0px" y="0px"
	 viewBox="0 0 494 88" style="enable-background:new 0 0 494 88;" xml:space="preserve">
<style type="text/css">
	.st0{fill:url(#SVGID_1_);}
	.st1{fill:url(#SVGID_2_);}
	.st2{fill:url(#SVGID_3_);}
</style>
<g>
	<g>
		<path d="M151.1,64.2h-13.6V23.6h13.6c8.4,0,13,5.4,13,12.2v16.7C164,59.3,159.5,64.2,151.1,64.2z M155.3,36c0-3.2-1.5-5.1-4.9-5.1
			h-4.2v26.1h4.2c3.4,0,4.9-1.9,4.9-5.1V36z"/>
		<path d="M188.7,64.6c-2.9,0-5-1.2-5.6-4.2c-1.7,2.8-4.4,4.2-7.8,4.2c-4.3,0-7.6-2.9-7.6-7.9v-0.4c0-6.3,5.7-8.3,13.8-9.7v-4
			c0-1.7-1-2.7-2.9-2.7c-2.1,0-2.8,1-2.8,2.9v1.7h-6.8v-1.4c0-5,3-8.9,9.9-8.9c7,0,9.8,4.2,9.8,9.8V58c0,1.1,0.6,1.6,1.7,1.6v5.1
			H188.7z M181.5,50.6c-4.6,0.7-6.7,1.9-6.7,4.9v1.1c0,1.7,1,2.9,2.9,2.9c2.1,0,3.9-1.3,3.9-3.3V50.6z"/>
		<path d="M203.8,41.1v13.7c0,3.8,0.4,6.7,2,9.4H198c-1.2-2.4-1.6-5.1-1.6-9.4V41.1h-3.9v-5.8h4.2v-5.4l7.2-1.8v7.1h4.6v5.8H203.8z"
			/>
		<path d="M231.3,64.6c-2.9,0-5-1.2-5.6-4.2c-1.7,2.8-4.4,4.2-7.8,4.2c-4.3,0-7.6-2.9-7.6-7.9v-0.4c0-6.3,5.7-8.3,13.8-9.7v-4
			c0-1.7-1-2.7-2.9-2.7c-2.1,0-2.8,1-2.8,2.9v1.7h-6.8v-1.4c0-5,3-8.9,9.9-8.9c7,0,9.8,4.2,9.8,9.8V58c0,1.1,0.6,1.6,1.7,1.6v5.1
			H231.3z M224.1,50.6c-4.6,0.7-6.7,1.9-6.7,4.9v1.1c0,1.7,1,2.9,2.9,2.9c2.1,0,3.9-1.3,3.9-3.3V50.6z"/>
		<path d="M252.6,31v33.1h-8.7V31H235v-7.4h26.3V31H252.6z"/>
		<path d="M270.6,64.6c-6.3,0-10.5-3.8-10.5-10.4v-9.4c0-6.5,4.2-10.5,10.5-10.5c6.2,0,10.4,4,10.4,10.5v9.4
			C281,60.8,276.8,64.6,270.6,64.6z M273.8,43.5c0-2.1-1.3-3.5-3.2-3.5c-2.1,0-3.3,1.4-3.3,3.5v12.2c0,2.1,1.2,3.5,3.3,3.5
			c2,0,3.2-1.4,3.2-3.5V43.5z"/>
		<path d="M296.2,64.6c-6.3,0-10.5-3.8-10.5-10.4v-9.4c0-6.5,4.2-10.5,10.5-10.5c6.2,0,10.4,4,10.4,10.5v9.4
			C306.6,60.8,302.4,64.6,296.2,64.6z M299.5,43.5c0-2.1-1.3-3.5-3.2-3.5c-2.1,0-3.3,1.4-3.3,3.5v12.2c0,2.1,1.2,3.5,3.3,3.5
			c2,0,3.2-1.4,3.2-3.5V43.5z"/>
		<path d="M311.7,64.2V23.6h7.5v40.6H311.7z"/>
		<path d="M334.1,64.6c-6.7,0-10.3-3.9-10.3-9.1v-1h6.2v1c0,2.7,1.5,3.8,3.9,3.8c2.3,0,3.5-0.9,3.5-2.9c0-2.6-2.4-3.6-6.5-5.3
			c-4.1-1.6-6.5-3.8-6.5-8.1c0-5.3,4.1-8.6,9.8-8.6c6.2,0,9.7,3.7,9.7,8.8v0.5h-6.1V43c0-1.9-1.1-3-3.5-3c-2,0-3.1,0.9-3.1,2.6
			c0,1.7,1.4,2.6,5,4c4.6,1.8,8.1,4.1,8.1,9.4C344.1,60.2,341,64.6,334.1,64.6z"/>
		<path d="M368.9,55.3v8.9h-7.4v-8.9h-15v-5.6l15.5-26.1h6.8v25.2h3.9v6.5H368.9z M361.5,36l-7.5,12.8h7.5V36z"/>
		<path d="M395.4,64.2V47.9h-10.1v16.3h-8.7V23.6h8.7v16.8h10.1V23.6h8.7v40.6H395.4z"/>
		<path d="M419.9,64.6c-6.2,0-10.5-4.1-10.5-10.2v-9.9c0-6.1,4.2-10.2,10.5-10.2c6.3,0,10.2,4.1,10.2,10.2V50h-13.5v5.6
			c0,2.1,1.1,3.5,3.3,3.5c2.3,0,3.4-1.4,3.4-3.5v-2.1h6.7v1C430.1,60.6,426.2,64.6,419.9,64.6z M423.2,43.4c0-2.1-1.2-3.5-3.3-3.5
			c-2,0-3.2,1.4-3.2,3.5v3.7h6.5V43.4z"/>
		<path d="M454.6,64.6c-2.9,0-5-1.2-5.6-4.2c-1.7,2.8-4.4,4.2-7.8,4.2c-4.3,0-7.6-2.9-7.6-7.9v-0.4c0-6.3,5.7-8.3,13.8-9.7v-4
			c0-1.7-1-2.7-2.9-2.7c-2.1,0-2.8,1-2.8,2.9v1.7h-6.8v-1.4c0-5,3-8.9,9.9-8.9c7,0,9.8,4.2,9.8,9.8V58c0,1.1,0.6,1.6,1.7,1.6v5.1
			H454.6z M447.4,50.6c-4.6,0.7-6.7,1.9-6.7,4.9v1.1c0,1.7,1,2.9,2.9,2.9c2.1,0,3.9-1.3,3.9-3.3V50.6z"/>
		<path d="M467.8,45.8v18.3h-7.5V34.9h6.2l0.5,5.8c1.3-5.2,4.5-6.9,8.7-6V42C469.9,41,467.8,43.1,467.8,45.8z"/>
		<path d="M489.4,41.1v13.7c0,3.8,0.4,6.7,2,9.4h-7.8c-1.2-2.4-1.6-5.1-1.6-9.4V41.1H478v-5.8h4.2v-5.4l7.2-1.8v7.1h4.6v5.8H489.4z"
			/>
	</g>
	<g>
		<linearGradient id="SVGID_1_" gradientUnits="userSpaceOnUse" x1="108.0193" y1="24.315" x2="-7.0398" y2="64.1432">
			<stop  offset="0" style="stop-color:#A21C26"/>
			<stop  offset="1" style="stop-color:#C20E1A"/>
		</linearGradient>
		<ellipse class="st0" cx="78.5" cy="34.5" rx="7.3" ry="7.2"/>
		<linearGradient id="SVGID_2_" gradientUnits="userSpaceOnUse" x1="107.6408" y1="23.2336" x2="-7.436" y2="63.0679">
			<stop  offset="0" style="stop-color:#A21C26"/>
			<stop  offset="1" style="stop-color:#C20E1A"/>
		</linearGradient>
		<path class="st1" d="M112.4,30.5c-1.8-0.3-3.7-0.5-5.8-0.7l-0.2,0c0-0.1,0-0.2-0.1-0.3c-0.1-0.3-0.1-0.6-0.2-0.8
			c0-0.2-0.1-0.3-0.1-0.5c-0.1-0.3-0.1-0.6-0.2-0.9c0-0.1-0.1-0.3-0.1-0.4c-0.1-0.3-0.2-0.6-0.3-0.9c0-0.1-0.1-0.2-0.1-0.2
			c-0.1-0.3-0.2-0.7-0.4-1l0.2-0.1c1.7-1.2,3.2-2.3,4.6-3.5l0.6-0.5l-3.9-6.8l-0.8,0.3c-1.7,0.7-3.4,1.4-5.3,2.3l-0.2,0.1
			c-1.1-1.3-2.4-2.6-3.7-3.7l0.1-0.2c0.9-1.9,1.6-3.6,2.3-5.3l0.3-0.8l-6.8-3.9L92,3.3c-1.1,1.4-2.3,2.9-3.5,4.6l-0.1,0.2
			C88,8,87.6,7.9,87.3,7.8c-0.1,0-0.1,0-0.2-0.1c-0.3-0.1-0.6-0.2-0.9-0.3c-0.1,0-0.2-0.1-0.4-0.1c-0.3-0.1-0.6-0.1-0.9-0.2
			c-0.1,0-0.3-0.1-0.4-0.1c-0.3-0.1-0.6-0.1-0.8-0.2c-0.1,0-0.2,0-0.3-0.1l0-0.2c-0.2-2.1-0.4-3.9-0.7-5.7L82.5,0h-7.9l-0.1,0.8
			c-0.3,1.8-0.5,3.7-0.7,5.7l0,0.2c0,0,0,0,0,0c-0.8,0.1-1.7,0.3-2.5,0.5c-0.1,0-0.1,0-0.2,0c-0.4,0.1-0.7,0.2-1.1,0.3
			c0,0-0.1,0-0.1,0c-0.4,0.1-0.8,0.3-1.2,0.4l-0.1-0.2c-1.2-1.7-2.4-3.2-3.5-4.6l-0.5-0.6l-6.8,3.9l0.3,0.8c0.7,1.7,1.4,3.4,2.3,5.3
			l0.1,0.2c-0.8,0.7-1.5,1.3-2.2,2.1c0,0-0.1,0.1-0.1,0.1c-0.3,0.3-0.5,0.6-0.8,0.9c-0.1,0.2-0.3,0.3-0.4,0.5
			c-0.2,0.2-0.4,0.4-0.5,0.6c-0.1,0.1-0.2,0.2-0.2,0.3c-1.1,1.4-2,2.8-2.8,4.4C48.7,12.6,39.2,6.4,28.3,6.4C12.7,6.4,0,19,0,34.5h0
			c0,29.3,50,52,52.1,52.9l1.3,0.6l1.3-0.6c1.7-0.7,32.5-14.7,46-34.8c1.8,0.8,3.5,1.6,5.2,2.2l0.8,0.3l3.9-6.8l-0.6-0.5
			c-1.4-1.1-3-2.2-4.7-3.4l-0.2-0.1c0.6-1.6,1.1-3.3,1.4-5l0.2,0c2.1-0.2,4-0.4,5.8-0.7l0.8-0.1v-7.8L112.4,30.5z M78.5,56.3
			c-0.6,0-1.3,0-1.9-0.1c-0.1,0.4-0.2,0.9-0.3,1.3c0.9,0.7,1.9,1.5,2.8,2.3l-2.4,4.2c-1.2-0.4-2.3-0.8-3.4-1.2
			c-0.9,0.9-1.9,1.7-3,2.3c0.1,1.2,0.3,2.4,0.3,3.6L65.8,70c-0.6-1.1-1.1-2.2-1.6-3.3c-0.1,0-0.2,0-0.3,0c-1.2,0-2.4-0.2-3.5-0.5
			c-0.7,0.9-1.5,1.9-2.3,2.8l-4.2-2.4c0.4-1.2,0.8-2.3,1.2-3.4c-0.9-0.9-1.7-1.9-2.3-3c-1.2,0.1-2.4,0.2-3.6,0.3l-1.3-4.7
			c1.1-0.6,2.2-1.1,3.3-1.6c0-1.3,0.1-2.5,0.5-3.8c-0.9-0.7-1.9-1.5-2.8-2.3l2.4-4.2c1.2,0.4,2.3,0.8,3.4,1.2c0.9-0.9,1.9-1.7,3-2.3
			c-0.1-0.7-0.1-1.4-0.2-2.1c-0.6-2-0.9-4.1-0.9-6.2c0-12,9.8-21.8,21.9-21.8s21.9,9.8,21.9,21.8S90.6,56.3,78.5,56.3z"/>
		<linearGradient id="SVGID_3_" gradientUnits="userSpaceOnUse" x1="112.505" y1="37.2214" x2="-2.5541" y2="77.0495">
			<stop  offset="0" style="stop-color:#A21C26"/>
			<stop  offset="1" style="stop-color:#C20E1A"/>
		</linearGradient>
		<path class="st2" d="M66.4,49.8c-2.3-1.3-5.3-0.5-6.7,1.8c-1.3,2.3-0.5,5.3,1.8,6.6c2.3,1.3,5.3,0.5,6.7-1.8
			C69.6,54.1,68.8,51.1,66.4,49.8z"/>
	</g>
</g>
</svg>
